<svg xmlns="http://www.w3.org/2000/svg" viewBox="0 0 400 300" role="img" aria-label="مزود طاقة">
  <!-- Placeholder product art — replace with a real PSU photo later -->
  <defs>
    <linearGradient id="bg" x1="0" y1="0" x2="1" y2="1">
      <stop offset="0" stop-color="#2a1d11"/><stop offset="1" stop-color="#43301b"/>
    </linearGradient>
  </defs>
  <rect width="400" height="300" fill="url(#bg)"/>
  <g stroke="#45321e" stroke-width="1">
    <path d="M0 75h400M0 150h400M0 225h400M100 0v300M200 0v300M300 0v300"/>
  </g>
  <!-- unit body -->
  <rect x="96" y="86" width="208" height="128" rx="10" fill="#332413" stroke="#8d7a61" stroke-width="2"/>
  <!-- fan grill -->
  <circle cx="162" cy="150" r="42" fill="none" stroke="#fb923c" stroke-width="2.5"/>
  <circle cx="162" cy="150" r="28" fill="none" stroke="#fb923c" stroke-width="1.5" opacity="0.55"/>
  <circle cx="162" cy="150" r="14" fill="none" stroke="#fb923c" stroke-width="1.5" opacity="0.35"/>
  <circle cx="162" cy="150" r="5" fill="#fb923c"/>
  <!-- modular sockets -->
  <g fill="none" stroke="#8d7a61" stroke-width="2">
    <rect x="228" y="108" width="24" height="16" rx="3"/>
    <rect x="258" y="108" width="24" height="16" rx="3"/>
    <rect x="228" y="134" width="24" height="16" rx="3"/>
    <rect x="258" y="134" width="24" height="16" rx="3"/>
  </g>
  <!-- power bolt -->
  <path d="M248 168l-14 26h12l-6 20 22-30h-13l9-16z" fill="#fb923c"/>
  <text x="200" y="266" font-family="Segoe UI, sans-serif" font-size="15" letter-spacing="6" fill="#8d7a61" text-anchor="middle">POWER</text>
</svg>
