<svg xmlns="http://www.w3.org/2000/svg" viewBox="0 0 400 300" role="img" aria-label="ذاكرة">
  <!-- Placeholder product art — replace with a real RAM photo later -->
  <defs>
    <linearGradient id="bg" x1="0" y1="0" x2="1" y2="1">
      <stop offset="0" stop-color="#2a1d11"/><stop offset="1" stop-color="#43301b"/>
    </linearGradient>
  </defs>
  <rect width="400" height="300" fill="url(#bg)"/>
  <g stroke="#45321e" stroke-width="1">
    <path d="M0 75h400M0 150h400M0 225h400M100 0v300M200 0v300M300 0v300"/>
  </g>
  <!-- two sticks, slightly offset -->
  <g transform="rotate(-6 200 150)">
    <rect x="120" y="70" width="52" height="160" rx="6" fill="#332413" stroke="#8d7a61" stroke-width="2"/>
    <rect x="132" y="86" width="28" height="20" rx="3" fill="none" stroke="#fb923c" stroke-width="2"/>
    <rect x="132" y="116" width="28" height="20" rx="3" fill="none" stroke="#fb923c" stroke-width="2"/>
    <rect x="132" y="146" width="28" height="20" rx="3" fill="none" stroke="#fb923c" stroke-width="2"/>
    <path d="M126 236h40" stroke="#fb923c" stroke-width="5" stroke-linecap="round"/>
  </g>
  <g transform="rotate(-6 200 150) translate(96 0)">
    <rect x="120" y="70" width="52" height="160" rx="6" fill="#332413" stroke="#8d7a61" stroke-width="2"/>
    <rect x="132" y="86" width="28" height="20" rx="3" fill="#fb923c" opacity="0.3"/>
    <rect x="132" y="116" width="28" height="20" rx="3" fill="none" stroke="#fb923c" stroke-width="2"/>
    <rect x="132" y="146" width="28" height="20" rx="3" fill="none" stroke="#fb923c" stroke-width="2"/>
    <path d="M126 236h40" stroke="#fb923c" stroke-width="5" stroke-linecap="round"/>
  </g>
  <text x="200" y="282" font-family="Segoe UI, sans-serif" font-size="15" letter-spacing="6" fill="#8d7a61" text-anchor="middle">MEMORY</text>
</svg>
